HIERARCHY
ROOT Root
{
  OFFSET 0.0 0.0 0.0
  CHANNELS 6 Xposition Yposition Zposition Zrotation Yrotation Xrotation
  JOINT Hips
  {
    OFFSET 0.0 100.0 0.0
    CHANNELS 6 Xposition Yposition Zposition Zrotation Yrotation Xrotation
    JOINT Spine1
    {
      OFFSET 5.003913 -0.037094 -0.013727
      CHANNELS 3 Zrotation Yrotation Xrotation
      JOINT Spine2
      {
        OFFSET 7.125363 -1e-06 0.0
        CHANNELS 3 Zrotation Yrotation Xrotation
        JOINT Chest
        {
          OFFSET 7.594027 1e-06 0.0
          CHANNELS 3 Zrotation Yrotation Xrotation
          JOINT Neck1
          {
            OFFSET 26.313086 -0.460272 -0.181672
            CHANNELS 3 Zrotation Yrotation Xrotation
            JOINT Neck2
            {
              OFFSET 8.045911 0.0 0.0
              CHANNELS 3 Zrotation Yrotation Xrotation
              JOINT Head
              {
                OFFSET 6.432774 0.0 0.0
                CHANNELS 3 Zrotation Yrotation Xrotation
                JOINT HeadEnd
                {
                  OFFSET 16.169773 0.06451 0.00362
                  CHANNELS 3 Zrotation Yrotation Xrotation
                }
                JOINT Jaw
                {
                  OFFSET 0.108741 3.12938 0.002639
                  CHANNELS 3 Zrotation Yrotation Xrotation
                }
                JOINT LeftEye
                {
                  OFFSET 4.45173 8.166359 3.206392
                  CHANNELS 3 Zrotation Yrotation Xrotation
                }
                JOINT RightEye
                {
                  OFFSET 4.436895 8.135758 -3.222429
                  CHANNELS 3 Zrotation Yrotation Xrotation
                }
              }
            }
          }
          JOINT LeftShoulder
          {
            OFFSET 23.218927 5.195579 1.621656
            CHANNELS 3 Zrotation Yrotation Xrotation
            JOINT LeftArm
            {
              OFFSET 15.902118 2e-06 -2e-06
              CHANNELS 3 Zrotation Yrotation Xrotation
              JOINT LeftForeArm
              {
                OFFSET 28.739307 0.0 -1e-06
                CHANNELS 3 Zrotation Yrotation Xrotation
                JOINT LeftHand
                {
                  OFFSET 27.093981 -4e-06 0.0
                  CHANNELS 3 Zrotation Yrotation Xrotation
                  JOINT LeftHandThumb1
                  {
                    OFFSET 2.276781 3.380274 0.83384
                    CHANNELS 3 Zrotation Yrotation Xrotation
                    JOINT LeftHandThumb2
                    {
                      OFFSET 4.705309 -1e-06 -1e-06
                      CHANNELS 3 Zrotation Yrotation Xrotation
                      JOINT LeftHandThumb3
                      {
                        OFFSET 2.798515 0.0 3e-06
                        CHANNELS 3 Zrotation Yrotation Xrotation
                        JOINT LeftHandThumbEnd
                        {
                          OFFSET 3.180793 4e-06 -4e-06
                          CHANNELS 3 Zrotation Yrotation Xrotation
                        }
                      }
                    }
                  }
                  JOINT LeftHandIndex1
                  {
                    OFFSET 3.247786 2.352677 0.137192
                    CHANNELS 3 Zrotation Yrotation Xrotation
                    JOINT LeftHandIndex2
                    {
                      OFFSET 6.367095 1e-06 0.0
                      CHANNELS 3 Zrotation Yrotation Xrotation
                      JOINT LeftHandIndex3
                      {
                        OFFSET 3.662364 0.0 0.0
                        CHANNELS 3 Zrotation Yrotation Xrotation
                        JOINT LeftHandIndex4
                        {
                          OFFSET 2.329242 4e-06 -4e-06
                          CHANNELS 3 Zrotation Yrotation Xrotation
                          JOINT LeftHandIndexEnd
                          {
                            OFFSET 2.767823 1e-06 0.0
                            CHANNELS 3 Zrotation Yrotation Xrotation
                          }
                        }
                      }
                    }
                  }
                  JOINT LeftHandMiddle1
                  {
                    OFFSET 3.163612 0.945023 -0.406112
                    CHANNELS 3 Zrotation Yrotation Xrotation
                    JOINT LeftHandMiddle2
                    {
                      OFFSET 6.276789 3e-06 0.0
                      CHANNELS 3 Zrotation Yrotation Xrotation
                      JOINT LeftHandMiddle3
                      {
                        OFFSET 4.35652 -1e-06 4e-06
                        CHANNELS 3 Zrotation Yrotation Xrotation
                        JOINT LeftHandMiddle4
                        {
                          OFFSET 2.996877 0.0 8e-06
                          CHANNELS 3 Zrotation Yrotation Xrotation
                          JOINT LeftHandMiddleEnd
                          {
                            OFFSET 2.323256 3e-06 -4e-06
                            CHANNELS 3 Zrotation Yrotation Xrotation
                          }
                        }
                      }
                    }
                  }
                  JOINT LeftHandRing1
                  {
                    OFFSET 2.882606 -0.309162 0.107445
                    CHANNELS 3 Zrotation Yrotation Xrotation
                    JOINT LeftHandRing2
                    {
                      OFFSET 6.033198 0.0 4e-06
                      CHANNELS 3 Zrotation Yrotation Xrotation
                      JOINT LeftHandRing3
                      {
                        OFFSET 4.350578 3e-06 0.0
                        CHANNELS 3 Zrotation Yrotation Xrotation
                        JOINT LeftHandRing4
                        {
                          OFFSET 2.651321 2e-06 -7e-06
                          CHANNELS 3 Zrotation Yrotation Xrotation
                          JOINT LeftHandRingEnd
                          {
                            OFFSET 1.937663 1e-06 -4e-06
                            CHANNELS 3 Zrotation Yrotation Xrotation
                          }
                        }
                      }
                    }
                  }
                  JOINT LeftHandPinky1
                  {
                    OFFSET 2.865315 -1.525436 0.575687
                    CHANNELS 3 Zrotation Yrotation Xrotation
                    JOINT LeftHandPinky2
                    {
                      OFFSET 5.54936 1e-06 -8e-06
                      CHANNELS 3 Zrotation Yrotation Xrotation
                      JOINT LeftHandPinky3
                      {
                        OFFSET 3.070974 0.0 -4e-06
                        CHANNELS 3 Zrotation Yrotation Xrotation
                        JOINT LeftHandPinky4
                        {
                          OFFSET 1.549672 1e-06 0.0
                          CHANNELS 3 Zrotation Yrotation Xrotation
                          JOINT LeftHandPinkyEnd
                          {
                            OFFSET 1.952123 0.0 0.0
                            CHANNELS 3 Zrotation Yrotation Xrotation
                          }
                        }
                      }
                    }
                  }
                }
              }
            }
          }
          JOINT RightShoulder
          {
            OFFSET 23.161716 5.296122 -1.380114
            CHANNELS 3 Zrotation Yrotation Xrotation
            JOINT RightArm
            {
              OFFSET -16.027195 -2e-06 1.1e-05
              CHANNELS 3 Zrotation Yrotation Xrotation
              JOINT RightForeArm
              {
                OFFSET -28.736639 4e-06 2e-06
                CHANNELS 3 Zrotation Yrotation Xrotation
                JOINT RightHand
                {
                  OFFSET -27.133619 6e-06 0.0
                  CHANNELS 3 Zrotation Yrotation Xrotation
                  JOINT RightHandThumb1
                  {
                    OFFSET -2.274328 -3.351035 -0.83067
                    CHANNELS 3 Zrotation Yrotation Xrotation
                    JOINT RightHandThumb2
                    {
                      OFFSET -4.703594 -3e-06 2e-06
                      CHANNELS 3 Zrotation Yrotation Xrotation
                      JOINT RightHandThumb3
                      {
                        OFFSET -2.794935 -4e-06 -3e-06
                        CHANNELS 3 Zrotation Yrotation Xrotation
                        JOINT RightHandThumbEnd
                        {
                          OFFSET -3.183852 4e-06 1e-06
                          CHANNELS 3 Zrotation Yrotation Xrotation
                        }
                      }
                    }
                  }
                  JOINT RightHandIndex1
                  {
                    OFFSET -3.253496 -2.33755 -0.127667
                    CHANNELS 3 Zrotation Yrotation Xrotation
                    JOINT RightHandIndex2
                    {
                      OFFSET -6.344434 0.0 0.0
                      CHANNELS 3 Zrotation Yrotation Xrotation
                      JOINT RightHandIndex3
                      {
                        OFFSET -3.654871 0.0 -8e-06
                        CHANNELS 3 Zrotation Yrotation Xrotation
                        JOINT RightHandIndex4
                        {
                          OFFSET -2.327586 -1e-06 0.0
                          CHANNELS 3 Zrotation Yrotation Xrotation
                          JOINT RightHandIndexEnd
                          {
                            OFFSET -2.770001 3e-06 8e-06
                            CHANNELS 3 Zrotation Yrotation Xrotation
                          }
                        }
                      }
                    }
                  }
                  JOINT RightHandMiddle1
                  {
                    OFFSET -3.168223 -0.944764 0.411762
                    CHANNELS 3 Zrotation Yrotation Xrotation
                    JOINT RightHandMiddle2
                    {
                      OFFSET -6.266691 -1e-06 -4e-06
                      CHANNELS 3 Zrotation Yrotation Xrotation
                      JOINT RightHandMiddle3
                      {
                        OFFSET -4.348901 0.0 0.0
                        CHANNELS 3 Zrotation Yrotation Xrotation
                        JOINT RightHandMiddle4
                        {
                          OFFSET -3.00024 2e-06 -4e-06
                          CHANNELS 3 Zrotation Yrotation Xrotation
                          JOINT RightHandMiddleEnd
                          {
                            OFFSET -2.321477 -4e-06 -4e-06
                            CHANNELS 3 Zrotation Yrotation Xrotation
                          }
                        }
                      }
                    }
                  }
                  JOINT RightHandRing1
                  {
                    OFFSET -2.885654 0.293261 -0.119232
                    CHANNELS 3 Zrotation Yrotation Xrotation
                    JOINT RightHandRing2
                    {
                      OFFSET -6.032835 -1e-06 -4e-06
                      CHANNELS 3 Zrotation Yrotation Xrotation
                      JOINT RightHandRing3
                      {
                        OFFSET -4.33881 0.0 -4e-06
                        CHANNELS 3 Zrotation Yrotation Xrotation
                        JOINT RightHandRing4
                        {
                          OFFSET -2.654903 -4e-06 -4e-06
                          CHANNELS 3 Zrotation Yrotation Xrotation
                          JOINT RightHandRingEnd
                          {
                            OFFSET -1.935122 0.0 4e-06
                            CHANNELS 3 Zrotation Yrotation Xrotation
                          }
                        }
                      }
                    }
                  }
                  JOINT RightHandPinky1
                  {
                    OFFSET -2.866241 1.503904 -0.60527
                    CHANNELS 3 Zrotation Yrotation Xrotation
                    JOINT RightHandPinky2
                    {
                      OFFSET -5.553177 -2e-06 0.0
                      CHANNELS 3 Zrotation Yrotation Xrotation
                      JOINT RightHandPinky3
                      {
                        OFFSET -3.062664 -1e-06 -4e-06
                        CHANNELS 3 Zrotation Yrotation Xrotation
                        JOINT RightHandPinky4
                        {
                          OFFSET -1.546529 2e-06 4e-06
                          CHANNELS 3 Zrotation Yrotation Xrotation
                          JOINT RightHandPinkyEnd
                          {
                            OFFSET -1.952341 0.0 -4e-06
                            CHANNELS 3 Zrotation Yrotation Xrotation
                          }
                        }
                      }
                    }
                  }
                }
              }
            }
          }
        }
      }
    }
    JOINT LeftLeg
    {
      OFFSET -8.443107 2.567604 10.043214
      CHANNELS 3 Zrotation Yrotation Xrotation
      JOINT LeftShin
      {
        OFFSET 43.229198 1e-06 -1e-06
        CHANNELS 3 Zrotation Yrotation Xrotation
        JOINT LeftFoot
        {
          OFFSET 42.298611 1e-06 1e-06
          CHANNELS 3 Zrotation Yrotation Xrotation
          JOINT LeftToeBase
          {
            OFFSET 14.165858 1e-06 0.0
            CHANNELS 3 Zrotation Yrotation Xrotation
            JOINT LeftToeEnd
            {
              OFFSET 6.7141 -0.234461 0.0
              CHANNELS 3 Zrotation Yrotation Xrotation
            }
          }
        }
      }
    }
    JOINT RightLeg
    {
      OFFSET -8.303923 2.592729 -10.047278
      CHANNELS 3 Zrotation Yrotation Xrotation
      JOINT RightShin
      {
        OFFSET -43.369682 0.0 1e-06
        CHANNELS 3 Zrotation Yrotation Xrotation
        JOINT RightFoot
        {
          OFFSET -42.260784 4e-06 2e-06
          CHANNELS 3 Zrotation Yrotation Xrotation
          JOINT RightToeBase
          {
            OFFSET -14.222245 -2e-06 -1e-06
            CHANNELS 3 Zrotation Yrotation Xrotation
            JOINT RightToeEnd
            {
              OFFSET -6.660062 0.232574 -2e-06
              CHANNELS 3 Zrotation Yrotation Xrotation
            }
          }
        }
      }
    }
  }
}
MOTION
Frames: 4
Frame Time: 0.03333333333333333
0.0 0.0 0.0 0.0 -0.0 0.0 -0.449946 89.20723 0.815042 89.599213 22.236803 90.079735 -0.221478 -0.166582 -0.008549 -10.602351 -0.842024 -0.921295 22.439537 1.651415 -2.606188 27.18342 -0.620956 1.813894 -2.445362 -0.422147 2.578632 -16.750725 0.292058 1.495119 6e-06 -0.0 -0.0 -0.052416 -0.024255 -0.096436 -0.025348 0.095126 -0.089602 -0.056691 -0.146249 -0.09176 -77.144524 -88.316582 92.140953 26.896992 -12.608699 -33.204937 42.774883 -1.057394 -1.322559 1.564256 8.766499 -83.094391 17.636625 -26.322729 52.411194 -19.466658 -14.395598 29.410385 -1e-06 -8.774821 -1e-06 15.339308 -17.496637 6.475943 -0.609774 -1.795653 -3.889326 -4.807088 -11.046807 -2.937849 4e-06 -20.976013 0.0 -5.01997 -25.033556 -4.031881 6e-06 -2e-06 -1e-06 -10.634533 -5.68697 -3.565585 10.573271 -17.922947 -3.113902 3e-06 -13.821208 3e-06 -0.501778 -31.181505 -4.027014 -11.66754 -59.664635 7.321985 -13.982714 -7.150196 -2.875041 13.772729 -8.401489 -3.21824 0.347735 -34.211544 0.771654 -0.963029 -17.733366 2.621019 -1e-06 2e-06 2e-06 -17.346413 -20.095215 -4.20178 21.757555 -1.638373 3.866428 2e-06 -6.338822 1e-06 -1.69759 -22.591743 -6.194007 -0.0 -3e-06 -3e-06 2.4311 -85.927101 -166.775345 26.390003 -8.795903 -31.501434 51.051643 -0.465872 -0.163262 4.817907 16.581207 -69.420364 22.182106 -20.375887 49.933308 -16.701809 -16.743525 28.476526 -3e-06 -12.690597 0.0 17.064384 -17.574593 2.294261 -0.105919 -1.513858 -4.275882 -5.039039 -5.612869 -2.953556 4e-06 -11.020519 -2e-06 -6.111294 -15.895328 -3.84047 1e-06 -0.0 0.0 -10.283365 -5.680287 -4.341839 11.028291 -11.302404 -2.372632 -1.384268 -14.238577 -6.32012 -0.625437 -26.924183 -3.8276 -5.085776 -49.610874 -3.315362 -13.708518 -7.363474 -3.72094 18.141144 -14.052736 -3.242674 5e-06 -18.787266 -2e-06 -0.429713 -8.456041 2.555502 2e-06 -0.0 -0.0 -15.923532 -20.094479 -5.473586 30.419197 -7.190824 1.735926 3e-06 -8.162922 -1e-06 -1.8619 -22.861464 -6.16794 1e-06 -3e-06 -0.0 -174.088516 -16.380972 -3.351021 48.576088 -0.235849 0.417268 -98.201668 -1.496078 -17.057991 -5.826821 1.599734 2.178873 -0.999999 -0.0 0.0 5.556596 -16.587374 -5.962822 49.518505 -0.11557 0.470919 -96.663437 0.17359 -17.894075 -5.381027 0.525949 1.642438 -1.000003 -0.0 0.0 
0.0 0.0 0.0 0.0 -0.0 0.0 -0.2886 89.31041 0.564341 89.516899 21.784508 89.901451 -0.012016 -0.155254 -0.01567 -10.536106 -0.810347 -0.92466 22.499006 1.687143 -2.621459 27.403168 -0.635998 1.811214 -2.421924 -0.431448 2.621937 -17.742805 0.338125 1.496618 6e-06 -0.0 -0.0 -0.042893 -0.020804 -0.081342 -0.005846 0.086798 -0.07823 -0.040765 -0.130574 -0.072558 -75.252167 -88.213707 90.496475 26.650555 -13.079251 -33.152313 43.324177 -1.21415 -1.255472 1.52697 8.788502 -81.805725 17.636621 -26.322721 52.411182 -19.466652 -14.395597 29.410385 -1e-06 -8.77482 0.0 15.291207 -17.473978 6.433859 -0.609777 -1.795652 -3.88933 -4.807087 -11.046807 -2.937849 5e-06 -20.976006 0.0 -5.019971 -25.033552 -4.031879 5e-06 -0.0 0.0 -10.634531 -5.686968 -3.565589 10.573271 -17.922945 -3.113901 3e-06 -13.821203 1e-06 -0.501777 -31.181498 -4.027014 -11.631449 -59.464863 7.310266 -13.982711 -7.150195 -2.875043 13.772727 -8.401488 -3.218241 0.347732 -34.211533 0.771656 -0.963031 -17.733362 2.62102 -1e-06 2e-06 1e-06 -17.346413 -20.095209 -4.201785 21.757555 -1.638375 3.866426 1e-06 -6.338821 0.0 -1.697587 -22.591734 -6.194005 -0.0 -3e-06 -3e-06 5.615433 -85.875549 -169.84903 26.173203 -9.301633 -31.643841 52.30619 -0.593152 -0.200332 4.520572 16.482399 -69.020111 22.182114 -20.375893 49.933323 -16.701817 -16.743532 28.476534 -3e-06 -12.690604 -1e-06 16.99548 -17.606094 2.333181 -0.105919 -1.513853 -4.275882 -5.039042 -5.612871 -2.953558 2e-06 -11.020523 -1e-06 -6.111299 -15.89533 -3.840472 -0.0 -1e-06 1e-06 -10.283371 -5.680289 -4.341837 11.028296 -11.302403 -2.372634 -1.38427 -14.238579 -6.32012 -0.625438 -26.924185 -3.827604 -5.092205 -49.634556 -3.303118 -13.708527 -7.363477 -3.720939 18.141151 -14.052738 -3.242674 5e-06 -18.78727 -1e-06 -0.429709 -8.456043 2.555503 1e-06 1e-06 -0.0 -15.923538 -20.094482 -5.473586 30.419218 -7.190825 1.735925 2e-06 -8.162925 -0.0 -1.861902 -22.861467 -6.167942 -1e-06 -3e-06 -1e-06 -174.707794 -16.266441 -3.411159 48.615917 -0.240481 0.419263 -98.074013 -1.682331 -16.966188 -5.80811 1.584092 2.174329 -0.999999 0.0 0.0 4.851364 -16.61595 -5.75297 49.404205 -0.138535 0.496211 -96.260384 0.243663 -17.97718 -5.396145 0.536392 1.644368 -1.000001 -0.0 0.0 
0.0 0.0 0.0 0.0 -0.0 0.0 -0.124574 89.390938 0.349435 89.435188 21.367416 89.75132 0.159995 -0.156204 -0.030991 -10.498934 -0.797372 -0.927855 22.569246 1.698432 -2.637489 27.671947 -0.633484 1.818445 -2.398641 -0.439191 2.691835 -18.692305 0.339356 1.506561 6e-06 0.0 0.0 -0.031754 -0.017939 -0.067831 0.005672 0.080702 -0.068838 -0.034982 -0.118238 -0.054639 -75.513359 -88.080719 90.984924 26.443563 -13.509269 -33.078281 43.917545 -1.378143 -1.186813 1.541925 8.822445 -80.335182 17.636629 -26.322729 52.41119 -19.466661 -14.395598 29.410381 -1e-06 -8.774821 -2e-06 15.248377 -17.472908 6.397823 -0.609777 -1.795656 -3.889326 -4.807088 -11.046809 -2.93785 6e-06 -20.976017 0.0 -5.019969 -25.03356 -4.031882 6e-06 -1e-06 0.0 -10.634535 -5.686971 -3.565588 10.573277 -17.922949 -3.113902 4e-06 -13.821208 1e-06 -0.501776 -31.181505 -4.027014 -11.578567 -59.264542 7.300692 -13.982715 -7.150197 -2.875044 13.772731 -8.401493 -3.218241 0.347738 -34.211544 0.771653 -0.963027 -17.73337 2.621022 -1e-06 1e-06 2e-06 -17.346416 -20.095215 -4.201784 21.757557 -1.638377 3.866427 1e-06 -6.338823 -0.0 -1.697588 -22.59174 -6.194005 1e-06 -3e-06 -2e-06 9.638141 -85.718834 -173.739761 25.925669 -9.884604 -31.611731 53.62788 -0.702616 -0.260993 4.225155 16.354071 -68.616203 22.182114 -20.375895 49.933319 -16.701817 -16.743534 28.476534 -3e-06 -12.690603 -0.0 16.934637 -17.628445 2.365234 -0.105919 -1.513857 -4.275882 -5.039043 -5.612873 -2.953556 4e-06 -11.020524 -1e-06 -6.1113 -15.895334 -3.84047 1e-06 -1e-06 -0.0 -10.28337 -5.680287 -4.341838 11.028294 -11.302402 -2.372633 -1.384268 -14.23858 -6.32012 -0.625436 -26.924187 -3.827604 -5.09776 -49.551895 -3.272505 -13.708528 -7.363476 -3.720938 18.141153 -14.052739 -3.242676 7e-06 -18.78727 -2e-06 -0.42971 -8.456045 2.555503 1e-06 -0.0 1e-06 -15.923538 -20.094481 -5.473584 30.41921 -7.190825 1.735925 1e-06 -8.162925 -1e-06 -1.861902 -22.861469 -6.167942 -2e-06 -2e-06 -2e-06 -175.302505 -16.178265 -3.4528 48.701527 -0.241109 0.414366 -97.984489 -1.845185 -16.871958 -5.764131 1.568173 2.170726 -1.0 -0.0 0.0 4.222713 -16.647543 -5.602838 49.299377 -0.160245 0.511119 -95.942184 0.382645 -18.056885 -5.394237 0.543743 1.646997 -1.000002 0.0 0.0 
0.0 0.0 0.0 0.0 -0.0 0.0 0.036028 89.432213 0.187931 89.345566 21.030758 89.608795 0.274159 -0.16908 -0.048698 -10.478344 -0.812381 -0.936847 22.653202 1.694152 -2.643092 27.971943 -0.655009 1.845333 -2.386036 -0.446381 2.74352 -19.468405 0.31216 1.562068 6e-06 0.0 -0.0 -0.024526 -0.015773 -0.067076 0.003286 0.076609 -0.072443 -0.042439 -0.109479 -0.049333 -78.849083 -87.915123 94.542259 26.305521 -13.867057 -32.99551 44.502239 -1.500673 -1.131077 1.608259 8.870159 -78.927925 17.636627 -26.322733 52.411201 -19.466665 -14.395602 29.410395 -1e-06 -8.774823 -2e-06 15.221177 -17.495617 6.367236 -0.609776 -1.795656 -3.889328 -4.80709 -11.046809 -2.93785 5e-06 -20.976017 -2e-06 -5.01997 -25.03356 -4.031882 5e-06 -1e-06 1e-06 -10.634536 -5.68697 -3.565588 10.573277 -17.922951 -3.113902 3e-06 -13.821209 1e-06 -0.501777 -31.181505 -4.027016 -11.519859 -59.106991 7.285283 -13.982716 -7.150198 -2.875042 13.772731 -8.401493 -3.218243 0.347734 -34.211544 0.771654 -0.96303 -17.73337 2.621022 -1e-06 1e-06 1e-06 -17.346422 -20.095217 -4.201783 21.757565 -1.638376 3.866426 1e-06 -6.338823 1e-06 -1.69759 -22.591743 -6.194007 1e-06 -5e-06 -3e-06 13.530989 -85.45063 -177.505447 25.638823 -10.522712 -31.393127 54.888123 -0.801622 -0.345568 3.963967 16.213425 -68.136658 22.182119 -20.375895 49.933319 -16.701811 -16.74353 28.47653 -4e-06 -12.6906 -0.0 16.901049 -17.644489 2.386241 -0.105919 -1.513858 -4.275881 -5.039041 -5.61287 -2.953558 4e-06 -11.020523 -1e-06 -6.111298 -15.89533 -3.840471 -1e-06 -0.0 0.0 -10.283369 -5.680288 -4.341839 11.028294 -11.302403 -2.372633 -1.384268 -14.238577 -6.32012 -0.625434 -26.924187 -3.827601 -5.107438 -49.454281 -3.245589 -13.708527 -7.363478 -3.720938 18.141148 -14.052737 -3.242674 8e-06 -18.787266 -2e-06 -0.42971 -8.456041 2.555503 0.0 1e-06 0.0 -15.923536 -20.094481 -5.473586 30.419218 -7.190826 1.735927 3e-06 -8.162925 0.0 -1.861904 -22.861467 -6.16794 -2e-06 -1e-06 -0.0 -175.804596 -16.133869 -3.509959 48.858871 -0.240031 0.4127 -97.973625 -1.95223 -16.799755 -5.725064 1.549234 2.168774 -0.999999 0.0 0.0 3.717479 -16.66497 -5.476682 49.226643 -0.173513 0.507399 -95.760223 0.548237 -18.126917 -5.364019 0.544564 1.649842 -1.000002 1e-06 -0.0 
